<?xml version="1.0" encoding="UTF-8" standalone="no"?>
<svg xmlns="http://www.w3.org/2000/svg" width="800" height="600" viewBox="0 0 800 600">
  <!-- Background -->
  <rect width="800" height="600" fill="#f8f9fa" />
  
  <!-- Title -->
  <text x="400" y="50" font-family="Arial" font-size="24" text-anchor="middle" font-weight="bold">Compression Techniques for Big Data in Distributed Systems</text>
  
  <!-- Paper Outline -->
  <rect x="100" y="100" width="600" height="450" fill="white" stroke="#333" stroke-width="2" />
  
  <!-- Two-column layout representation -->
  <rect x="125" y="150" width="250" height="375" fill="#f0f0f0" stroke="#ccc" stroke-width="1" />
  <rect x="425" y="150" width="250" height="375" fill="#f0f0f0" stroke="#ccc" stroke-width="1" />
  
  <!-- Abstract Box -->
  <rect x="125" y="125" width="550" height="50" fill="#e6f3ff" stroke="#0366d6" stroke-width="1" />
  <text x="400" y="155" font-family="Arial" font-size="14" text-anchor="middle" font-weight="bold">Abstract</text>
  
  <!-- Figure 1: Compression Framework -->
  <rect x="150" y="230" width="200" height="120" fill="#e9ecef" stroke="#495057" stroke-width="1" />
  <rect x="170" y="250" width="160" height="80" fill="#dee2e6" stroke="#495057" stroke-width="1" />
  <rect x="190" y="270" width="120" height="40" fill="#adb5bd" stroke="#495057" stroke-width="1" />
  <text x="250" y="295" font-family="Arial" font-size="10" text-anchor="middle">Adaptive Framework</text>
  <text x="250" y="215" font-family="Arial" font-size="12" text-anchor="middle" font-weight="bold">Figure 1: Compression Framework</text>
  
  <!-- Figure 2: Compression Ratio -->
  <rect x="450" y="230" width="200" height="120" fill="#e9ecef" stroke="#495057" stroke-width="1" />
  <!-- Bar chart representation -->
  <rect x="480" y="330" width="20" height="-70" fill="#4361ee" stroke="#495057" stroke-width="1" />
  <rect x="510" y="330" width="20" height="-50" fill="#3a0ca3" stroke="#495057" stroke-width="1" />
  <rect x="540" y="330" width="20" height="-90" fill="#7209b7" stroke="#495057" stroke-width="1" />
  <rect x="570" y="330" width="20" height="-40" fill="#f72585" stroke="#495057" stroke-width="1" />
  <text x="550" y="215" font-family="Arial" font-size="12" text-anchor="middle" font-weight="bold">Figure 2: Compression Ratio</text>
  
  <!-- Figure 3: Distributed System -->
  <rect x="150" y="380" width="200" height="120" fill="#e9ecef" stroke="#495057" stroke-width="1" />
  <!-- Distributed system node representation -->
  <circle cx="200" cy="430" r="20" fill="#4cc9f0" stroke="#495057" stroke-width="1" />
  <circle cx="250" cy="410" r="20" fill="#4cc9f0" stroke="#495057" stroke-width="1" />
  <circle cx="300" cy="430" r="20" fill="#4cc9f0" stroke="#495057" stroke-width="1" />
  <circle cx="250" cy="470" r="20" fill="#4cc9f0" stroke="#495057" stroke-width="1" />
  <!-- Connection lines -->
  <line x1="200" y1="430" x2="250" y2="410" stroke="#495057" stroke-width="1" />
  <line x1="250" y1="410" x2="300" y2="430" stroke="#495057" stroke-width="1" />
  <line x1="200" y1="430" x2="250" y2="470" stroke="#495057" stroke-width="1" />
  <line x1="250" y1="470" x2="300" y2="430" stroke="#495057" stroke-width="1" />
  <text x="250" y="365" font-family="Arial" font-size="12" text-anchor="middle" font-weight="bold">Figure 3: Distributed System</text>
  
  <!-- Table -->
  <rect x="450" y="380" width="200" height="120" fill="#e9ecef" stroke="#495057" stroke-width="1" />
  <line x1="450" y1="400" x2="650" y2="400" stroke="#495057" stroke-width="1" />
  <line x1="450" y1="420" x2="650" y2="420" stroke="#495057" stroke-width="1" />
  <line x1="450" y1="440" x2="650" y2="440" stroke="#495057" stroke-width="1" />
  <line x1="450" y1="460" x2="650" y2="460" stroke="#495057" stroke-width="1" />
  <line x1="450" y1="480" x2="650" y2="480" stroke="#495057" stroke-width="1" />
  <line x1="550" y1="400" x2="550" y2="500" stroke="#495057" stroke-width="1" />
  <text x="550" y="365" font-family="Arial" font-size="12" text-anchor="middle" font-weight="bold">Table 1: Algorithm Comparison</text>
  
  <!-- IEEE logo and format -->
  <rect x="320" y="555" width="160" height="30" fill="#0d47a1" />
  <text x="400" y="575" font-family="Arial" font-size="14" text-anchor="middle" fill="white" font-weight="bold">IEEE Format</text>
</svg>